<svg xmlns="http://www.w3.org/2000/svg" width="500" height="500"><circle cx="250" cy="250" r="250" style="fill:#eee"/><path d="M322.4 391.7c-35.6 40.8-72.5 22.4-88.1-18.8l4-1.3c75.2-30.1 122.3-111.7 92.5-157.9-40.9-63.7-169.1-6.7-185.1 82.5-14.7 82.5 23.6 137.7 85.4 144.4 43.2 4.9 88.1-8.5 105.5-36.3 14.8-23.4 2.8-31.5-14.2-12.6zM228.1 345c-1.3-10.3-1.3-21.5-.4-33.2 9.3-81.6 36-115.3 49.8-93.7 12.9 20.7-2.7 93.8-49.4 126.9zM233.9 96.3c-12.6-26.1-31.6-20-45.1-13.3-27.1 13-32.2 37-21 49.4 26.7 29.1 85.1 2.7 66.1-36.1zM304.1 64.7c-29.5 14.2-35.1 40.3-22.9 53.8 29.1 31.7 92.7 3 72.1-39.3-13.8-28.3-34.4-21.8-49.2-14.5z"/></svg>