<svg xmlns="http://www.w3.org/2000/svg" width="500" height="500" viewBox="0 0 500 500">
  <style type="text/css">
    .st0{fill:#EEEEEE;}
  </style>
  <circle class="st0" cx="250" cy="250" r="250"/>
  <g>
    <path d="M322.4,391.7c-35.6,40.8-72.5,22.4-88.1-18.8l4-1.3c75.2-30.1,122.3-111.7,92.5-157.9c-40.9-63.7-169.1-6.7-185.1,82.5
		c-14.7,82.5,23.6,137.7,85.4,144.4c43.2,4.9,88.1-8.5,105.5-36.3C351.4,380.9,339.4,372.8,322.4,391.7z M228.1,345
		c-1.3-10.3-1.3-21.5-0.4-33.2c9.3-81.6,36-115.3,49.8-93.7C290.4,238.8,274.8,311.9,228.1,345z"/>
    <path d="M233.9,96.3c-12.6-26.1-31.6-20-45.1-13.3c-27.1,13-32.2,37-21,49.4C194.5,161.5,252.9,135.1,233.9,96.3z"/>
    <path d="M304.1,64.7c-29.5,14.2-35.1,40.3-22.9,53.8c29.1,31.7,92.7,3,72.1-39.3C339.5,50.9,318.9,57.4,304.1,64.7z"/>
  </g>
</svg>
